PathFileType	4	(X/Y/Z)	D:\TRACE\spotREDO_2-26-24\spot_justBody_Motion_1_2-platform.trc
DataRate	CameraRate	NumFrames	NumMarkers	Units	OrigDataRate	OrigDataStartFrame	OrigNumFrames
100.00	100.00	      23	5	mm	100.00	2626	      7000
Frame#	Time	Left_Front			Right_Front			Left_Aft			Right_Aft			Post			
		X1	Y1	Z1	X2	Y2	Z2	X3	Y3	Z3	X4	Y4	Z4	X5	Y5	Z5	

2626	26.250	-744.53040	-25.08626	-580.83594	670.29266	-13.75037	-496.19034	-815.93585	26.48179	637.47778	754.37158	33.65002	640.41895	-34.59810	587.27942	-1009.00067	
2627	26.260	-745.14441	-25.14148	-580.88525	669.71484	-13.80625	-496.22443	-816.43506	26.45887	637.43823	753.90503	33.69586	640.39642	-35.01473	586.99500	-1009.20654	
2628	26.270	-745.33356	-25.13524	-580.81409	669.26166	-13.74755	-496.33252	-816.73206	26.50019	637.37061	753.62952	33.70142	640.36285	-35.50784	586.80579	-1009.42755	
2629	26.280	-745.61707	-25.14818	-580.72736	669.23840	-13.86262	-496.21750	-816.99030	26.58218	637.35303	753.50989	33.54105	640.14093	-35.83992	586.63959	-1009.44568	
2630	26.290	-745.90009	-25.29098	-580.66821	668.99750	-13.99593	-496.23273	-817.26611	26.68686	637.25494	753.07416	33.51997	640.05322	-36.21684	586.49335	-1009.44434	
2631	26.300	-746.20551	-25.40229	-580.76617	668.78729	-14.13783	-496.27164	-817.47095	26.79885	637.18683	752.82941	33.51842	639.98010	-36.46643	586.30927	-1009.43518	
2632	26.310	-746.40485	-25.56122	-580.85767	668.60895	-14.26253	-496.33359	-817.63947	26.88071	637.15271	752.69611	33.67832	639.96667	-36.56415	586.13281	-1009.54034	
2633	26.320	-746.53699	-25.73396	-580.91687	668.31879	-14.39597	-496.41898	-817.76984	27.02905	637.14215	752.49512	33.84115	640.00336	-36.66019	586.03021	-1009.60400	
2634	26.330	-746.63507	-25.80436	-580.87360	668.19049	-14.50639	-496.40070	-817.92773	27.07447	637.11566	752.52966	34.02948	640.00177	-36.76915	585.87500	-1009.80157	
2635	26.340	-746.66302	-25.96180	-580.95929	668.06006	-14.60510	-496.40012	-818.00787	27.20523	637.05890	752.55725	34.08407	640.00903	-36.86768	585.72736	-1010.00171	
2636	26.350	-746.73560	-26.07784	-580.94287	667.92682	-14.53687	-496.38089	-818.19623	27.36332	636.99164	752.27496	34.23465	639.96143	-37.12153	585.57404	-1010.14728	
2637	26.360	-746.71320	-26.17647	-580.94354	667.86707	-14.60919	-496.37970	-818.33667	27.46395	637.01337	752.10559	34.46231	639.98120	-37.27354	585.39331	-1010.34344	
2638	26.370	-746.80725	-26.25349	-580.88751	667.79010	-14.67974	-496.38113	-818.45288	27.53572	637.02277	751.93201	34.59537	639.94250	-37.57921	585.21490	-1010.58746	
2639	26.380	-746.77777	-26.39624	-580.87024	667.82562	-14.77806	-496.51920	-818.48138	27.55807	636.99579	751.92273	34.66064	639.96271	-37.55080	585.02118	-1010.70862	
2640	26.390	-746.75708	-26.35107	-580.91809	667.79376	-14.70373	-496.48312	-818.42621	27.60919	636.99573	752.00061	34.73111	639.94684	-37.42177	584.90546	-1010.81799	
2641	26.400	-746.71185	-26.48193	-580.91528	667.83801	-14.72845	-496.46933	-818.42053	27.63674	636.98560	752.03168	34.79592	639.96967	-37.34029	584.77325	-1010.83276	
2642	26.410	-746.73700	-26.53148	-580.90228	667.84796	-14.77720	-496.46402	-818.50226	27.66796	636.93604	752.11731	34.81098	639.96857	-37.33058	584.73199	-1010.81769	
2643	26.420	-746.69800	-26.59919	-580.91968	667.83356	-14.79301	-496.50665	-818.53857	27.65187	636.94476	752.14478	34.80397	639.97961	-37.32154	584.72784	-1010.71161	
2644	26.430	-746.75629	-26.66053	-580.96240	667.80225	-14.84581	-496.44745	-818.58881	27.71522	636.92755	752.03418	34.81176	639.97046	-37.36586	584.69202	-1010.65161	
2645	26.440	-746.74902	-26.68242	-580.98907	667.73657	-14.85052	-496.55569	-818.55634	27.76794	636.94794	752.04797	34.83514	639.94647	-37.43037	584.70068	-1010.58673	
2646	26.450	-746.72949	-26.65580	-581.00311	667.80737	-14.88865	-496.59311	-818.52191	27.80311	636.92987	752.14203	34.83544	639.93390	-37.38813	584.66058	-1010.58130	
2647	26.460	-746.70135	-26.71608	-581.00110	667.82788	-14.95193	-496.59442	-818.52448	27.82862	636.93842	752.15106	34.85150	639.92963	-37.32970	584.61115	-1010.56512	
2648	26.470	-746.63776	-26.76671	-580.98907	667.94421	-15.05542	-496.61917	-818.42511	27.86836	636.91736	752.17908	34.86684	639.90155	-37.24709	584.51337	-1010.69299	
